<?xml version="1.0" encoding="UTF-8" standalone="no"?>
<svg
   xmlns:dc="http://purl.org/dc/elements/1.1/"
   xmlns:cc="http://creativecommons.org/ns#"
   xmlns:rdf="http://www.w3.org/1999/02/22-rdf-syntax-ns#"
   xmlns:svg="http://www.w3.org/2000/svg"
   xmlns="http://www.w3.org/2000/svg"
   xmlns:sodipodi="http://sodipodi.sourceforge.net/DTD/sodipodi-0.dtd"
   xmlns:inkscape="http://www.inkscape.org/namespaces/inkscape"
   version="1.1"
   id="Layer_1"
   x="0px"
   y="0px"
   viewBox="0 0 1058.2677 359.0551"
   xml:space="preserve"
   sodipodi:docname="banner-dark.svg"
   width="280mm"
   height="95mm"
   inkscape:version="1.0.1 (0767f8302a, 2020-10-17)"><metadata
   id="metadata139"><rdf:RDF><cc:Work
       rdf:about=""><dc:format>image/svg+xml</dc:format><dc:type
         rdf:resource="http://purl.org/dc/dcmitype/StillImage" /><dc:title></dc:title></cc:Work></rdf:RDF></metadata><defs
   id="defs137" /><sodipodi:namedview
   pagecolor="#ffffff"
   bordercolor="#666666"
   borderopacity="1"
   objecttolerance="10"
   gridtolerance="10"
   guidetolerance="10"
   inkscape:pageopacity="0"
   inkscape:pageshadow="2"
   inkscape:window-width="2488"
   inkscape:window-height="1016"
   id="namedview135"
   showgrid="false"
   units="mm"
   inkscape:pagecheckerboard="true"
   inkscape:zoom="0.431"
   inkscape:cx="1000"
   inkscape:cy="814.38515"
   inkscape:window-x="72"
   inkscape:window-y="27"
   inkscape:window-maximized="1"
   inkscape:current-layer="Layer_1" />
<style
   type="text/css"
   id="style2">
	.st0{fill:#0F274D;}
	.st1{fill:#CB6018;}
	.st2{fill:#FFFFFF;}
	.st3{fill:#F7C68C;}
</style>

<g
   id="g132"
   transform="translate(-470.86614,-820.57244)">
	<g
   id="g60">
		<g
   id="g28">
			<path
   class="st2"
   d="m 807.9,1040.2 v -77.7 h 35.4 c 15.9,0 23.8,6.9 23.8,20.9 0,9.4 -6.2,17.2 -18.6,23.4 l 24.7,33.6 H 855 l -23.7,-33.9 v -6.6 c 13.8,-2.4 20.7,-7.7 20.7,-16.1 0,-5.7 -3.2,-8.6 -9.7,-8.6 h -19.8 v 65.1 h -14.6 z"
   id="path6" />
			<path
   class="st2"
   d="m 907.2,983.2 c 17.4,0 26,8.9 26,26.6 0,2.4 -0.2,4.7 -0.5,7.1 h -37.9 c 0,8.1 5.9,12.1 17.7,12.1 5.8,0 11.5,-0.5 17.3,-1.6 v 11.4 c -5,1.1 -11.2,1.6 -18.4,1.6 -20.7,0 -31.1,-9.7 -31.1,-29.2 0.1,-18.7 9.1,-28 26.9,-28 z m -12.4,23.6 h 24.4 v -0.4 c 0,-7.9 -4,-11.9 -12,-11.9 -7.6,0 -11.7,4.1 -12.4,12.3 z"
   id="path8" />
			<path
   class="st2"
   d="m 948.6,985.5 c 7.6,-1.6 15.6,-2.3 24.1,-2.3 19.4,0 29.1,9.1 29.1,27.2 0,20 -9,30 -27.1,30 -3.8,0 -7.7,-0.9 -11.6,-2.7 v 23.4 h -14.4 v -75.6 z m 14.4,39.9 c 3.6,2 7.5,2.9 11.6,2.9 8.6,0 12.9,-6 12.9,-18.1 0,-10.3 -4.8,-15.4 -14.3,-15.4 -4.1,0 -7.5,0.3 -10.2,0.8 z"
   id="path10" />
			<path
   class="st2"
   d="m 1017.1,1040.3 v -57.2 h 11.2 l 1.8,7.3 c 5,-4.9 10.3,-7.3 15.9,-7.3 v 11.7 c -5.4,0 -10.2,2.2 -14.4,6.7 v 38.8 z"
   id="path12" />
			<path
   class="st2"
   d="m 1055.9,1011.7 c 0,-19.2 9.4,-28.7 28.3,-28.7 18.9,0 28.3,9.6 28.3,28.7 0,19.1 -9.4,28.7 -28.3,28.7 -18.8,0 -28.3,-9.5 -28.3,-28.7 z m 28.3,17.7 c 9.3,0 13.9,-6 13.9,-17.9 0,-11.6 -4.6,-17.5 -13.9,-17.5 -9.3,0 -13.9,5.8 -13.9,17.5 0,12 4.6,17.9 13.9,17.9 z"
   id="path14" />
			<path
   class="st2"
   d="m 1178.5,1036.9 c -8.8,2.3 -17.3,3.4 -25.6,3.4 -18.5,0 -27.7,-9.9 -27.7,-29.7 0,-18.3 9,-27.4 27.1,-27.4 3.8,0 7.8,0.9 11.8,2.7 v -23.4 h 14.4 z m -14.4,-38.8 c -3,-2 -6.7,-2.9 -11.2,-2.9 -9,0 -13.4,5 -13.4,15.1 0,11.9 4.7,17.9 14,17.9 3.8,0 7.3,-0.5 10.7,-1.6 v -28.5 z"
   id="path16" />
			<path
   class="st2"
   d="m 1248,983.2 v 57.2 h -11.3 l -1.7,-7.3 c -6.6,4.9 -13.5,7.3 -20.9,7.3 -11.7,0 -17.5,-6.9 -17.5,-20.7 v -36.4 h 14.4 v 36 c 0,6.3 2.8,9.5 8.3,9.5 4.7,0 9.5,-1.9 14.3,-5.6 v -39.9 h 14.4 z"
   id="path18" />
			<path
   class="st2"
   d="m 1308.3,1038.7 c -4.7,1.1 -9.6,1.6 -14.7,1.6 -20.3,0 -30.5,-9.9 -30.5,-29.7 0,-18.3 10.2,-27.5 30.5,-27.5 5.1,0 10,0.5 14.7,1.6 v 11.4 c -4.7,-1.1 -9.3,-1.6 -13.6,-1.6 -11.4,0 -17.1,5.4 -17.1,16.1 0,12.2 5.7,18.2 17.1,18.2 4.4,0 8.9,-0.5 13.6,-1.6 z"
   id="path20" />
			<path
   class="st2"
   d="m 1346.4,983.2 c 17.4,0 26,8.9 26,26.6 0,2.4 -0.2,4.7 -0.5,7.1 H 1334 c 0,8.1 5.9,12.1 17.7,12.1 5.8,0 11.5,-0.5 17.3,-1.6 v 11.4 c -5,1.1 -11.2,1.6 -18.4,1.6 -20.7,0 -31.1,-9.7 -31.1,-29.2 0,-18.7 9,-28 26.9,-28 z m -12.4,23.6 h 24.4 v -0.4 c 0,-7.9 -4,-11.9 -12,-11.9 -7.6,0 -11.8,4.1 -12.4,12.3 z"
   id="path22" />
			<path
   class="st2"
   d="m 1397.1,1040.3 h -14.8 l 33,-77.9 h 15.5 l 33.8,77.9 h -15.5 l -8.9,-21.2 h -25.9 l 5,-12.5 h 15.7 l -12.2,-29.2 z"
   id="path24" />
			<path
   class="st2"
   d="m 1493,962.5 v 77.9 h -14.4 v -77.9 z"
   id="path26" />
		</g>
		<g
   id="g58">
			<g
   id="g56">
				<path
   class="st2"
   d="m 1010.2,1068.9 c 0,-7.4 5.6,-12.8 13.3,-12.8 3.9,0 7.2,1.3 9.5,3.9 l -2.3,2.3 c -1.9,-2 -4.3,-3 -7,-3 -5.6,0 -9.8,4.1 -9.8,9.6 0,5.5 4.2,9.6 9.8,9.6 2.7,0 5.1,-1 7,-3 l 2.3,2.2 c -2.3,2.6 -5.6,3.9 -9.5,3.9 -7.7,0.1 -13.3,-5.3 -13.3,-12.7 z"
   id="path30" />
				<path
   class="st2"
   d="m 1044.8,1068.9 c 0,-7.3 5.6,-12.8 13.3,-12.8 7.6,0 13.3,5.4 13.3,12.8 0,7.4 -5.6,12.8 -13.3,12.8 -7.7,0 -13.3,-5.4 -13.3,-12.8 z m 23,0 c 0,-5.5 -4.1,-9.6 -9.7,-9.6 -5.6,0 -9.8,4.1 -9.8,9.6 0,5.5 4.1,9.6 9.8,9.6 5.6,0.1 9.7,-4 9.7,-9.6 z"
   id="path32" />
				<path
   class="st2"
   d="m 1084.1,1068.9 c 0,-7.3 5.6,-12.8 13.3,-12.8 7.6,0 13.3,5.4 13.3,12.8 0,7.4 -5.6,12.8 -13.3,12.8 -7.7,0 -13.3,-5.4 -13.3,-12.8 z m 23,0 c 0,-5.5 -4.1,-9.6 -9.7,-9.6 -5.6,0 -9.8,4.1 -9.8,9.6 0,5.5 4.1,9.6 9.8,9.6 5.6,0.1 9.7,-4 9.7,-9.6 z"
   id="path34" />
				<path
   class="st2"
   d="m 1125.5,1056.4 h 3.6 v 21.9 h 13.5 v 3.1 h -17.1 z"
   id="path36" />
				<path
   class="st2"
   d="m 1156,1056.4 h 3.6 v 25 h -3.6 z"
   id="path38" />
				<path
   class="st2"
   d="m 1197.9,1056.4 v 25 h -2.9 l -15,-18.7 v 18.7 h -3.6 v -25 h 2.9 l 15,18.6 v -18.6 z"
   id="path40" />
				<path
   class="st2"
   d="m 1232,1068.8 h 3.4 v 9.8 c -2.5,2.1 -6,3.2 -9.5,3.2 -7.7,0 -13.3,-5.4 -13.3,-12.8 0,-7.4 5.6,-12.8 13.4,-12.8 4,0 7.3,1.3 9.6,3.9 l -2.2,2.2 c -2.1,-2 -4.4,-2.9 -7.3,-2.9 -5.8,0 -10,4 -10,9.6 0,5.5 4.2,9.6 9.9,9.6 2.1,0 4.1,-0.5 5.9,-1.6 v -8.2 z"
   id="path42" />
				<path
   class="st2"
   d="m 1270.4,1056.4 h 10.5 c 8,0 13.5,5.1 13.5,12.5 0,7.4 -5.5,12.5 -13.5,12.5 h -10.5 z m 10.4,21.9 c 6.2,0 10.2,-3.8 10.2,-9.4 0,-5.6 -4,-9.4 -10.2,-9.4 h -6.8 v 18.8 z"
   id="path44" />
				<path
   class="st2"
   d="m 1307.2,1068.9 c 0,-7.3 5.6,-12.8 13.3,-12.8 7.6,0 13.3,5.4 13.3,12.8 0,7.4 -5.6,12.8 -13.3,12.8 -7.6,0 -13.3,-5.4 -13.3,-12.8 z m 23,0 c 0,-5.5 -4.1,-9.6 -9.7,-9.6 -5.6,0 -9.8,4.1 -9.8,9.6 0,5.5 4.1,9.6 9.8,9.6 5.6,0.1 9.7,-4 9.7,-9.6 z"
   id="path46" />
				<path
   class="st2"
   d="m 1383.1,1056.4 -8.4,25 h -3.8 l -6.8,-20 -6.8,20 h -3.8 l -8.4,-25 h 3.7 l 6.8,20.3 7,-20.3 h 3.3 l 6.9,20.4 6.9,-20.4 z"
   id="path48" />
				<path
   class="st2"
   d="m 1418.3,1056.4 v 25 h -2.9 l -15,-18.7 v 18.7 h -3.6 v -25 h 2.9 l 15,18.6 v -18.6 z"
   id="path50" />
				<path
   class="st2"
   d="m 1469.9,1075.2 h -13.3 l -2.7,6.3 h -3.7 l 11.3,-25 h 3.5 l 11.4,25 h -3.8 z m -1.2,-2.9 -5.4,-12.3 -5.4,12.3 z"
   id="path52" />
				<path
   class="st2"
   d="m 1489.4,1056.4 h 3.6 v 25 h -3.6 z"
   id="path54" />
			</g>
		</g>
	</g>
	<g
   id="g130">
		<g
   id="g92">
			<path
   class="st2"
   d="m 773.2,991.1 c -0.1,-2.2 -0.3,-4.4 -0.6,-6.5 -7.1,-57.9 -53.5,-103.9 -111.6,-110.3 -1.9,-0.2 -3.8,-0.4 -5.6,-0.5 -2.3,-0.1 -4.6,-0.2 -6.9,-0.2 2.1,1.3 3.4,3.6 3.4,6.2 0,2.6 -1.4,5 -3.5,6.2 2.2,0 4.4,0.1 6.6,0.3 1.8,0.1 3.6,0.3 5.3,0.5 51.1,5.9 92,45.8 99.5,96.5 0.2,1.7 0.5,3.3 0.6,5 0.2,1.7 0.3,3.5 0.4,5.3 1.1,-0.6 2.4,-1 3.7,-1 4.1,0 7.4,3.3 7.4,7.4 0,4.1 -3.3,7.4 -7.4,7.4 -1.4,0 -2.6,-0.4 -3.7,-1 -0.1,1.8 -0.2,3.6 -0.4,5.3 -0.2,1.7 -0.4,3.4 -0.6,5 -7.5,50.6 -48.4,90.6 -99.5,96.5 -1.8,0.2 -3.5,0.4 -5.3,0.5 -2.2,0.1 -4.4,0.2 -6.6,0.3 2.1,1.3 3.4,3.6 3.4,6.2 0,2.6 -1.4,4.9 -3.4,6.2 2.3,0 4.6,-0.1 6.9,-0.2 1.9,-0.1 3.8,-0.3 5.6,-0.5 58.2,-6.3 104.6,-52.3 111.6,-110.3 0.3,-2.1 0.5,-4.3 0.6,-6.5 0.2,-2.9 0.3,-5.9 0.3,-8.9 0.2,-3 0.1,-6 -0.2,-8.9 z m -239.6,0.6 c 0.1,-2 0.3,-4 0.6,-6 6.3,-50.1 45.3,-90.2 94.8,-98.2 1.7,-0.3 3.5,-0.5 5.3,-0.7 2.2,-0.3 4.4,-0.4 6.6,-0.6 -2.2,-1.2 -3.8,-3.7 -3.8,-6.4 0,-2.5 1.2,-4.7 3.2,-6 -2.3,0.1 -4.6,0.3 -6.9,0.5 -1.9,0.2 -3.7,0.4 -5.6,0.7 -54.9,8.5 -98.4,52.5 -105.9,107.8 -0.2,1.7 -0.4,3.4 -0.6,5.2 -0.2,1.8 -0.3,3.6 -0.4,5.4 1,-0.5 2.2,-0.8 3.4,-0.8 4.1,0 7.4,3.3 7.4,7.4 0,4.1 -3.3,7.4 -7.4,7.4 -1.2,0 -2.4,-0.3 -3.4,-0.8 0.1,1.8 0.2,3.7 0.4,5.5 0.1,1.7 0.3,3.4 0.6,5.2 7.5,55.3 50.9,99.3 105.9,107.8 1.9,0.3 3.7,0.5 5.6,0.7 2.3,0.2 4.5,0.4 6.9,0.5 -1.9,-1.3 -3.2,-3.5 -3.2,-6 0,-2.7 1.5,-5.1 3.7,-6.4 -2.2,-0.1 -4.4,-0.3 -6.6,-0.6 -1.8,-0.2 -3.6,-0.4 -5.3,-0.7 -49.6,-8 -88.5,-48.1 -94.8,-98.2 -0.2,-2 -0.4,-4 -0.6,-6 0,0 0,0 0,0 -0.2,-2.7 -0.3,-5.5 -0.3,-8.3 0.1,-2.9 0.2,-5.6 0.4,-8.4 0,0 0,0 0,0 z"
   id="path62" />
			<g
   id="g76">
				<g
   id="g68">
					<path
   class="st2"
   d="m 773.2,991.1 c -2.2,-2.1 -5.2,-3.5 -8.6,-3.5 -1.5,0 -2.9,0.2 -4.2,0.7 -4.8,1.7 -8.2,6.3 -8.2,11.6 0,5.4 3.4,10 8.2,11.6 1.3,0.5 2.7,0.7 4.2,0.7 3.3,0 6.4,-1.3 8.6,-3.5 2.3,-2.2 3.8,-5.4 3.8,-8.9 0,-3.3 -1.4,-6.4 -3.8,-8.7 z m -8.5,16.3 c -1.4,0 -2.6,-0.4 -3.7,-1 -2.2,-1.3 -3.6,-3.6 -3.6,-6.3 0,-2.7 1.4,-5 3.6,-6.3 1.1,-0.6 2.4,-1 3.7,-1 4.1,0 7.4,3.3 7.4,7.4 -0.1,3.9 -3.4,7.2 -7.4,7.2 z"
   id="path64" />
					<path
   class="st2"
   d="m 772.6,984.6 c -2.4,-1.2 -5.1,-1.9 -8,-1.9 -1.7,0 -3.3,0.2 -4.8,0.7 -7.3,2.1 -12.6,8.8 -12.6,16.7 0,7.9 5.3,14.6 12.6,16.7 1.5,0.4 3.1,0.7 4.8,0.7 2.9,0 5.6,-0.7 8,-1.9 5.6,-2.9 9.4,-8.7 9.4,-15.4 0,-6.9 -3.8,-12.7 -9.4,-15.6 z m -7.9,22.8 c -1.4,0 -2.6,-0.4 -3.7,-1 -2.2,-1.3 -3.6,-3.6 -3.6,-6.3 0,-2.7 1.4,-5 3.6,-6.3 1.1,-0.6 2.4,-1 3.7,-1 4.1,0 7.4,3.3 7.4,7.4 -0.1,3.9 -3.4,7.2 -7.4,7.2 z"
   id="path66" />
				</g>
				<g
   id="g74">
					<path
   class="st2"
   d="m 533.6,991.8 c 0,-0.1 0,-0.1 0,0 -2.3,-2.5 -5.6,-4.1 -9.2,-4.1 -1,0 -2,0.1 -3,0.4 -5.4,1.3 -9.4,6.2 -9.4,12 0,5.8 4,10.7 9.4,12 0.9,0.2 2,0.4 3,0.4 3.6,0 6.9,-1.6 9.2,-4.1 0,0 0,0 0,0 2,-2.2 3.2,-5.1 3.2,-8.3 -0.1,-3.3 -1.2,-6.1 -3.2,-8.3 z m -9.2,15.6 c -1.2,0 -2.4,-0.3 -3.4,-0.8 -2.4,-1.2 -4,-3.7 -4,-6.5 0,-2.8 1.6,-5.3 4,-6.5 1,-0.5 2.2,-0.8 3.4,-0.8 4.1,0 7.4,3.3 7.4,7.4 -0.1,3.9 -3.4,7.2 -7.4,7.2 z"
   id="path70" />
					<path
   class="st2"
   d="m 534.2,985.7 c -2.8,-1.9 -6.2,-3 -9.8,-3 -0.8,0 -1.6,0 -2.4,0.2 -8.5,1.1 -15,8.4 -15,17.1 0,8.8 6.5,16 15,17.2 0.8,0.1 1.6,0.2 2.4,0.2 3.6,0 7,-1.1 9.8,-3 4.6,-3.1 7.6,-8.4 7.6,-14.3 -0.1,-6 -3.1,-11.3 -7.6,-14.4 z m -9.8,21.7 c -1.2,0 -2.4,-0.3 -3.4,-0.8 -2.4,-1.2 -4,-3.7 -4,-6.5 0,-2.8 1.6,-5.3 4,-6.5 1,-0.5 2.2,-0.8 3.4,-0.8 4.1,0 7.4,3.3 7.4,7.4 -0.1,3.9 -3.4,7.2 -7.4,7.2 z"
   id="path72" />
				</g>
			</g>
			<g
   id="g90">
				<g
   id="g82">
					<path
   class="st2"
   d="m 655.3,873.9 c -2.1,-3.8 -6.2,-6.4 -10.8,-6.4 -4.9,0 -9.1,2.8 -11.1,6.9 -0.8,1.6 -1.3,3.5 -1.3,5.5 0,2.6 0.8,5 2.1,7 2.2,3.3 6,5.4 10.2,5.4 4.4,0 8.3,-2.3 10.5,-5.9 1.2,-1.9 1.8,-4.1 1.8,-6.5 0.2,-2.2 -0.4,-4.3 -1.4,-6 z m -10.8,13.3 c -1.3,0 -2.5,-0.3 -3.6,-1 -2.2,-1.2 -3.8,-3.7 -3.8,-6.4 0,-2.5 1.2,-4.7 3.2,-6 1.2,-0.8 2.6,-1.3 4.2,-1.3 1.4,0 2.8,0.4 3.9,1.1 2.1,1.3 3.4,3.6 3.4,6.2 0,2.6 -1.4,5 -3.5,6.2 -1,0.8 -2.4,1.2 -3.8,1.2 z"
   id="path78" />
					<path
   class="st2"
   d="m 661,874.3 c -2.3,-6.9 -8.8,-11.8 -16.5,-11.8 -7.9,0 -14.6,5.3 -16.7,12.6 -0.4,1.5 -0.7,3.1 -0.7,4.7 0,2.8 0.6,5.4 1.8,7.7 2.8,5.7 8.7,9.7 15.5,9.7 7.1,0 13.2,-4.3 15.9,-10.3 1,-2.1 1.5,-4.5 1.5,-7 0.1,-2 -0.3,-3.8 -0.8,-5.6 z m -9.1,5.5 c 0,2.6 -1.4,5 -3.5,6.2 -1.1,0.7 -2.5,1.1 -3.9,1.1 -1.3,0 -2.5,-0.3 -3.6,-1 -2.2,-1.2 -3.8,-3.7 -3.8,-6.4 0,-2.5 1.2,-4.7 3.2,-6 1.2,-0.8 2.6,-1.3 4.2,-1.3 1.4,0 2.8,0.4 3.9,1.1 2.1,1.4 3.5,3.7 3.5,6.3 z"
   id="path80" />
				</g>
				<g
   id="g88">
					<path
   class="st2"
   d="m 655,1113.7 c -2.2,-3.5 -6.1,-5.9 -10.5,-5.9 -4.2,0 -8,2.1 -10.2,5.4 -1.3,2 -2.1,4.4 -2.1,7 0,2 0.4,3.8 1.3,5.5 2,4.1 6.2,6.9 11.1,6.9 4.7,0 8.7,-2.6 10.8,-6.4 1,-1.8 1.5,-3.8 1.5,-6 0,-2.4 -0.7,-4.6 -1.9,-6.5 z m -10.5,13.8 c -1.6,0 -3,-0.5 -4.2,-1.3 -1.9,-1.3 -3.2,-3.5 -3.2,-6 0,-2.7 1.5,-5.1 3.7,-6.4 1.1,-0.6 2.3,-1 3.6,-1 1.4,0 2.8,0.4 3.9,1.1 2.1,1.3 3.4,3.6 3.4,6.2 0,2.6 -1.4,4.9 -3.4,6.2 -1,0.8 -2.3,1.2 -3.8,1.2 z"
   id="path84" />
					<path
   class="st2"
   d="m 660.4,1113.2 c -2.7,-6.1 -8.8,-10.3 -15.9,-10.3 -6.8,0 -12.7,3.9 -15.5,9.7 -1.2,2.3 -1.8,4.9 -1.8,7.7 0,1.6 0.2,3.2 0.7,4.8 2.1,7.2 8.8,12.6 16.7,12.6 7.7,0 14.2,-5 16.5,-11.8 0.6,-1.7 0.9,-3.6 0.9,-5.5 -0.1,-2.7 -0.7,-5.1 -1.6,-7.2 z m -15.9,14.3 c -1.6,0 -3,-0.5 -4.2,-1.3 -1.9,-1.3 -3.2,-3.5 -3.2,-6 0,-2.7 1.5,-5.1 3.7,-6.4 1.1,-0.6 2.3,-1 3.6,-1 1.4,0 2.8,0.4 3.9,1.1 2.1,1.3 3.4,3.6 3.4,6.2 0,2.6 -1.4,4.9 -3.4,6.2 -1,0.8 -2.3,1.2 -3.8,1.2 z"
   id="path86" />
				</g>
			</g>
		</g>
		<g
   id="g128">
			<path
   class="st3"
   d="m 714.2,1065.6 c -1.4,2.2 -1.1,5.1 0.8,7 2.2,2.2 5.7,2.2 7.9,0 2.2,-2.2 2.2,-5.7 0,-7.9 -1.9,-1.9 -4.8,-2.1 -7,-0.8 -0.3,0.2 -0.7,0.5 -1,0.8 -0.2,0.2 -0.4,0.6 -0.7,0.9 z"
   id="path94" />
			<g
   id="g126">
				<path
   class="st2"
   d="m 695.4,929.8 c 2.2,1.4 5.1,1.1 7,-0.8 2.2,-2.2 2.2,-5.7 0,-7.9 -2.2,-2.2 -5.7,-2.2 -7.9,0 -1.9,1.9 -2.1,4.8 -0.8,7 0.2,0.3 0.5,0.7 0.8,1 0.3,0.2 0.6,0.5 0.9,0.7 z"
   id="path96" />
				<g
   id="g124">
					<path
   class="st2"
   d="m 705.1,1043.8 -6.2,-6.2 c 1.4,-1.8 2.7,-3.8 3.8,-5.7 v 0 c 0.5,-0.7 0.9,-1.5 1.3,-2.3 3.7,-6.7 6,-14 7.1,-21.4 h 8.7 v -18.4 h -8.7 c -1.4,-9.6 -4.8,-18.8 -10.5,-27 -0.5,-0.8 -1.1,-1.6 -1.7,-2.4 l 6.2,-6.2 -13,-13 -6.2,6.2 c -1.5,-1.2 -3.1,-2.2 -4.8,-3.2 -0.7,-0.5 -1.4,-0.9 -2.1,-1.3 -7,-4 -14.7,-6.6 -22.5,-7.7 v -8.7 h -18.4 v 8.7 c -7.3,1 -14.5,3.3 -21.1,6.9 -0.8,0.4 -1.5,0.8 -2.2,1.2 -2.1,1.2 -4.1,2.5 -6.1,4 l -6.1,-6.1 -13,13 6.1,6.1 c -0.6,0.8 -1.2,1.6 -1.7,2.4 -5.6,8.3 -9.1,17.5 -10.5,27 h -8.7 v 18.4 h 8.7 c 1.1,7.8 3.7,15.4 7.7,22.5 0.4,0.7 0.9,1.5 1.3,2.1 1,1.7 2,3.2 3.2,4.8 l -6.2,6.2 13,13 6.2,-6.2 c 0.8,0.6 1.6,1.2 2.4,1.7 8.2,5.7 17.5,9.1 27,10.5 v 8.7 h 18.4 v -8.7 c 10.3,-1.5 20.3,-5.4 29,-11.9 v 0 c 0.1,-0.1 0.3,-0.2 0.4,-0.3 l 6.2,6.2 z m -94.1,-8.6 c -20,-20 -20,-52.5 0,-72.5 20,-20 52.5,-20 72.5,0 20,20 20.1,52.5 0,72.5 -20.1,20 -52.5,20 -72.5,0 z"
   id="path98" />
					<path
   class="st1"
   d="m 588.5,960.1 -3.2,-0.1 -15.1,-15.1 c 1.4,-2.2 1.1,-5.1 -0.8,-7 -2.2,-2.2 -5.7,-2.2 -7.9,0 -2.2,2.2 -2.2,5.7 0,7.9 1.9,1.9 4.8,2.1 7,0.8 l 15.8,15.8 4,0.1 c 0.3,-0.6 0.6,-1.1 1,-1.7 z"
   id="path100" />
					<path
   class="st2"
   d="m 594.2,929 c 1.9,1.9 4.8,2.1 7,0.8 l 9.9,9.9 c 0.4,-0.2 0.7,-0.5 1.1,-0.7 0.3,-0.2 0.7,-0.4 1,-0.6 L 602.8,928 c 1.4,-2.2 1.1,-5.1 -0.8,-7 -2.2,-2.2 -5.7,-2.2 -7.9,0 -2.1,2.3 -2.1,5.8 0.1,8 z"
   id="path102" />
					<path
   class="st3"
   d="m 575.7,933.3 c 1.9,1.9 4.8,2.1 7,0.8 l 10,10 1.7,-1.7 -10,-10 c 1.4,-2.2 1.1,-5.1 -0.8,-7 -2.2,-2.2 -5.7,-2.2 -7.9,0 -2.2,2.1 -2.2,5.7 0,7.9 z"
   id="path104" />
					<path
   class="st1"
   d="m 710.3,1078.9 c -1.9,-1.9 -4.8,-2.1 -7,-0.8 l -15.1,-15.1 -0.1,-3.2 -2.5,-2.5 0.2,6.7 15.8,15.8 c -1.4,2.2 -1.1,5.1 0.8,7 2.2,2.2 5.7,2.2 7.9,0 2.2,-2.1 2.2,-5.7 0,-7.9 z"
   id="path106" />
					<path
   class="st2"
   d="m 706.8,1034.6 c -0.1,0.2 -0.2,0.3 -0.3,0.5 l 12,12 c -1.4,2.2 -1.1,5.1 0.8,7 2.2,2.2 5.7,2.2 7.9,0 2.2,-2.2 2.2,-5.7 0,-7.9 -1.9,-1.9 -4.8,-2.1 -7,-0.8 l -12.5,-12.5 c -0.3,0.5 -0.6,1 -0.9,1.5 z"
   id="path108" />
					<path
   class="st3"
   d="m 703.9,1051.8 -1.7,1.7 12,12 c 0.2,-0.3 0.5,-0.7 0.8,-1 0.3,-0.3 0.6,-0.5 1,-0.8 z"
   id="path110" />
					<path
   class="st1"
   d="m 595,1079.9 15.8,-15.8 0.1,-6.1 c -0.6,-0.4 -1.2,-0.7 -1.7,-1 l -0.7,0.7 -0.1,5.3 -15.1,15.1 c -2.2,-1.4 -5.1,-1.1 -7,0.8 -2.2,2.2 -2.2,5.7 0,7.9 2.2,2.2 5.7,2.2 7.9,0 1.9,-1.8 2.2,-4.8 0.8,-6.9 z"
   id="path112" />
					<path
   class="st2"
   d="m 578.1,1047.1 10.7,-10.7 c -0.2,-0.4 -0.5,-0.7 -0.7,-1.1 -0.2,-0.3 -0.4,-0.6 -0.7,-1 l -11.1,11.1 c -2.2,-1.4 -5.1,-1.1 -7,0.8 -2.2,2.2 -2.2,5.7 0,7.9 2.2,2.2 5.7,2.2 7.9,0 2,-1.9 2.3,-4.8 0.9,-7 z"
   id="path114" />
					<path
   class="st3"
   d="m 582.4,1065.6 11,-11 -1.7,-1.7 -11,11 c -2.2,-1.4 -5.1,-1.1 -7,0.8 -2.2,2.2 -2.2,5.7 0,7.9 2.2,2.2 5.7,2.2 7.9,0 1.9,-1.9 2.1,-4.8 0.8,-7 z"
   id="path116" />
					<path
   class="st1"
   d="m 726.4,944.9 -15.1,15.1 -5.3,0.1 -0.7,0.7 c 0.4,0.6 0.7,1.2 1,1.7 l 6.1,-0.1 15.8,-15.8 c 2.2,1.4 5.1,1.1 7,-0.8 2.2,-2.2 2.2,-5.7 0,-7.9 -2.2,-2.2 -5.7,-2.2 -7.9,0 -2,2 -2.2,4.9 -0.9,7 z"
   id="path118" />
					<path
   class="st2"
   d="m 684.7,940.5 10.7,-10.7 c -0.3,-0.2 -0.7,-0.5 -1,-0.8 -0.3,-0.3 -0.5,-0.6 -0.8,-1 l -11.2,11.2 c 0.4,0.3 0.9,0.5 1.2,0.8 0.5,0.2 0.8,0.4 1.1,0.5 z"
   id="path120" />
					<path
   class="st3"
   d="m 712.2,932.3 -11,11 1.7,1.7 11,-11 c 2.2,1.4 5.1,1.1 7,-0.8 2.2,-2.2 2.2,-5.7 0,-7.9 -2.2,-2.2 -5.7,-2.2 -7.9,0 -2,2 -2.2,4.9 -0.8,7 z"
   id="path122" />
				</g>
			</g>
		</g>
	</g>
</g>
</svg>
