<?xml version="1.0" encoding="UTF-8" standalone="no"?>
<svg
   xmlns:dc="http://purl.org/dc/elements/1.1/"
   xmlns:cc="http://creativecommons.org/ns#"
   xmlns:rdf="http://www.w3.org/1999/02/22-rdf-syntax-ns#"
   xmlns:svg="http://www.w3.org/2000/svg"
   xmlns="http://www.w3.org/2000/svg"
   xmlns:sodipodi="http://sodipodi.sourceforge.net/DTD/sodipodi-0.dtd"
   xmlns:inkscape="http://www.inkscape.org/namespaces/inkscape"
   version="1.1"
   id="Layer_1"
   x="0px"
   y="0px"
   viewBox="0 0 1058.2677 359.05488"
   xml:space="preserve"
   sodipodi:docname="Logo 2.svg"
   width="280mm"
   height="95mm"
   inkscape:version="1.0.1 (0767f8302a, 2020-10-17)"><metadata
   id="metadata109"><rdf:RDF><cc:Work
       rdf:about=""><dc:format>image/svg+xml</dc:format><dc:type
         rdf:resource="http://purl.org/dc/dcmitype/StillImage" /><dc:title></dc:title></cc:Work></rdf:RDF></metadata><defs
   id="defs107" /><sodipodi:namedview
   pagecolor="#ffffff"
   bordercolor="#666666"
   borderopacity="1"
   objecttolerance="10"
   gridtolerance="10"
   guidetolerance="10"
   inkscape:pageopacity="0"
   inkscape:pageshadow="2"
   inkscape:window-width="2488"
   inkscape:window-height="1016"
   id="namedview105"
   showgrid="false"
   units="mm"
   width="279mm"
   inkscape:zoom="0.431"
   inkscape:cx="1084.6868"
   inkscape:cy="350.34803"
   inkscape:window-x="72"
   inkscape:window-y="27"
   inkscape:window-maximized="1"
   inkscape:current-layer="Layer_1" />
<style
   type="text/css"
   id="style2">
	.st0{display:none;}
	.st1{display:none;fill:#F9EFE1;}
	.st2{fill:#F7C68C;}
	.st3{fill:#0F274D;}
	.st4{fill:#CB6018;}
</style>
<rect
   class="st0"
   width="2000"
   height="2000"
   id="rect4"
   x="0"
   y="0" />
<g
   id="g102"
   transform="translate(-470.86614,-820.47244)">
	<g
   id="g42">
		<g
   id="g40">
			<path
   class="st2"
   d="m 724.3,1063.3 c -1.3,2.1 -1.1,4.9 0.7,6.7 2.1,2.1 5.5,2.1 7.7,0 2.1,-2.1 2.1,-5.5 0,-7.7 -1.8,-1.8 -4.6,-2.1 -6.7,-0.7 -0.3,0.2 -0.6,0.5 -0.9,0.7 -0.3,0.3 -0.6,0.7 -0.8,1 z"
   id="path6" />
			<g
   id="g38">
				<path
   class="st3"
   d="m 668.6,1069 v -8.4 c 9.9,-1.4 19.6,-5.3 28,-11.5 v 0 c 0.1,-0.1 0.2,-0.2 0.4,-0.2 l 5.9,5.9 12.6,-12.6 -5.9,-5.9 c 1.3,-1.8 2.6,-3.6 3.7,-5.5 v 0 c 0.4,-0.7 0.8,-1.4 1.2,-2.2 3.5,-6.5 5.8,-13.5 6.8,-20.6 h 8.4 v -17.8 h -8.4 c -1.3,-9.2 -4.7,-18.1 -10.2,-26.1 -0.5,-0.8 -1,-1.6 -1.6,-2.3 l 6,-6 -12.6,-12.6 -6,6 c -1.5,-1.1 -3,-2.2 -4.6,-3.1 -0.6,-0.5 -1.4,-0.9 -2.1,-1.3 -6.8,-3.9 -14.2,-6.3 -21.7,-7.4 V 929 h -17.7 v 8.4 c -7.1,1 -14,3.2 -20.4,6.7 -0.8,0.4 -1.5,0.8 -2.2,1.2 -2,1.2 -4,2.4 -5.9,3.9 l -5.9,-5.9 -12.6,12.6 5.9,5.9 c -0.6,0.8 -1.1,1.5 -1.6,2.3 -5.4,8 -8.8,16.9 -10.1,26.1 h -8.4 v 17.7 h 8.4 c 1.1,7.5 3.5,14.9 7.4,21.7 0.4,0.7 0.8,1.4 1.3,2.1 0.9,1.6 2,3.1 3.1,4.6 l -6,6 12.6,12.6 6,-6 c 0.8,0.6 1.5,1.1 2.3,1.6 8,5.5 16.8,8.8 26.1,10.2 v 8.4 h 17.8 z m -43.9,-35 c -19.3,-19.3 -19.3,-50.6 0,-70 19.3,-19.4 50.6,-19.3 70,0 19.3,19.3 19.4,50.7 0,70 -19.3,19.3 -50.7,19.3 -70,0 z"
   id="path8" />
				<path
   class="st4"
   d="m 603,961.5 -3.1,-0.1 -14.6,-14.6 c 1.3,-2.1 1.1,-4.9 -0.7,-6.7 -2.1,-2.1 -5.5,-2.1 -7.7,0 -2.1,2.1 -2.1,5.5 0,7.7 1.8,1.8 4.6,2.1 6.7,0.7 l 15.3,15.3 3.9,0.1 c 0.3,-0.5 0.6,-1.1 1,-1.6 z"
   id="path10" />
				<path
   class="st2"
   d="m 590.7,935.6 c 1.8,1.8 4.6,2.1 6.7,0.7 l 9.6,9.6 1.7,-1.7 -9.6,-9.6 c 1.3,-2.1 1.1,-4.9 -0.7,-6.7 -2.1,-2.1 -5.5,-2.1 -7.7,0 -2.1,2.2 -2.1,5.6 0,7.7 z"
   id="path12" />
				<path
   class="st4"
   d="m 720.5,1076.1 c -1.8,-1.8 -4.6,-2.1 -6.7,-0.7 l -14.6,-14.6 -0.1,-3.1 -2.4,-2.4 0.2,6.5 15.3,15.3 c -1.3,2.1 -1.1,4.9 0.7,6.7 2.1,2.1 5.5,2.1 7.7,0 2,-2.1 2,-5.6 -0.1,-7.7 z"
   id="path14" />
				<path
   class="st2"
   d="m 714.4,1050 -1.7,1.7 11.6,11.6 c 0.2,-0.3 0.4,-0.6 0.7,-0.9 0.3,-0.3 0.6,-0.5 0.9,-0.7 z"
   id="path16" />
				<path
   class="st4"
   d="m 609.2,1077.1 15.3,-15.3 0.1,-5.9 c -0.5,-0.3 -1.1,-0.6 -1.7,-1 l -0.7,0.7 -0.1,5.2 -14.6,14.6 c -2.1,-1.3 -4.9,-1.1 -6.7,0.7 -2.1,2.1 -2.1,5.5 0,7.7 2.1,2.1 5.5,2.1 7.7,0 1.8,-1.8 2.1,-4.6 0.7,-6.7 z"
   id="path18" />
				<path
   class="st2"
   d="m 597.1,1063.3 10.6,-10.6 -1.7,-1.7 -10.6,10.6 c -2.1,-1.3 -4.9,-1.1 -6.7,0.7 -2.1,2.1 -2.1,5.5 0,7.7 2.1,2.1 5.5,2.1 7.7,0 1.8,-1.8 2,-4.6 0.7,-6.7 z"
   id="path20" />
				<path
   class="st4"
   d="m 736.1,946.9 -14.6,14.6 -5.2,0.1 -0.7,0.7 c 0.4,0.5 0.7,1.1 1,1.7 l 5.9,-0.1 15.3,-15.3 c 2.1,1.3 4.9,1.1 6.7,-0.7 2.1,-2.1 2.1,-5.5 0,-7.7 -2.1,-2.1 -5.5,-2.1 -7.7,0 -1.8,1.8 -2.1,4.6 -0.7,6.7 z"
   id="path22" />
				<g
   id="g34">
					<path
   class="st3"
   d="M 780.6,985.1 C 773.8,929.2 729,884.8 672.9,878.7 c -2.2,-6.6 -8.5,-11.4 -15.9,-11.4 -7.7,0 -14.1,5.1 -16.1,12.2 -53,8.2 -94.9,50.6 -102.1,104 -8.2,1.1 -14.4,8.1 -14.4,16.5 0,8.4 6.3,15.4 14.4,16.6 7.3,53.3 49.1,95.8 102.1,104 2,7 8.4,12.1 16.1,12.1 7.4,0 13.7,-4.8 15.9,-11.4 56.1,-6.1 100.9,-50.5 107.7,-106.4 5.4,-2.8 9.1,-8.4 9.1,-14.9 0,-6.5 -3.7,-12.1 -9.1,-14.9 z M 653,878.2 c 1.2,-0.8 2.6,-1.3 4.1,-1.3 1.4,0 2.7,0.4 3.8,1.1 2,1.3 3.3,3.5 3.3,6 0,2.6 -1.3,4.8 -3.4,6 -1.1,0.7 -2.4,1.1 -3.8,1.1 -1.3,0 -2.5,-0.3 -3.5,-0.9 -2.2,-1.2 -3.6,-3.5 -3.6,-6.2 0,-2.3 1.2,-4.5 3.1,-5.8 z m -111.9,128.9 c -1.2,0 -2.3,-0.3 -3.3,-0.8 -2.3,-1.2 -3.8,-3.6 -3.8,-6.3 0,-2.7 1.6,-5.1 3.8,-6.3 1,-0.5 2.1,-0.8 3.3,-0.8 3.9,0 7.1,3.2 7.1,7.1 0,3.9 -3.2,7.1 -7.1,7.1 z M 657,1123 c -1.5,0 -2.9,-0.5 -4.1,-1.3 -1.9,-1.3 -3.1,-3.4 -3.1,-5.8 0,-2.6 1.4,-5 3.6,-6.2 1,-0.6 2.2,-0.9 3.5,-0.9 1.4,0 2.7,0.4 3.8,1.1 2,1.3 3.3,3.5 3.3,6 0,2.5 -1.3,4.7 -3.3,6 -1,0.7 -2.3,1.1 -3.7,1.1 z m 15.3,-13.8 c -2.6,-5.9 -8.5,-10 -15.3,-10 -6.6,0 -12.3,3.8 -15,9.3 -47.8,-7.7 -85.4,-46.4 -91.5,-94.7 4.4,-3 7.3,-8.1 7.3,-13.8 0,-5.7 -2.9,-10.8 -7.3,-13.8 6.1,-48.3 43.7,-87 91.5,-94.7 2.7,5.5 8.4,9.3 15,9.3 6.8,0 12.7,-4.1 15.3,-10 49.3,5.7 88.8,44.2 96,93.1 -7,2 -12.1,8.4 -12.1,16.1 0,7.7 5.1,14.1 12.1,16.1 -7.2,48.8 -46.6,87.4 -96,93.1 z m 100.6,-102.1 c -1.3,0 -2.6,-0.4 -3.6,-1 -2.1,-1.2 -3.5,-3.5 -3.5,-6.1 0,-2.6 1.4,-4.9 3.5,-6.1 1.1,-0.6 2.3,-1 3.6,-1 3.9,0 7.1,3.2 7.1,7.1 0.1,3.9 -3.1,7.1 -7.1,7.1 z"
   id="path24" />
					<path
   class="st3"
   d="m 616.2,923.9 c -2.1,-2.1 -5.5,-2.1 -7.7,0 -2.1,2.1 -2.1,5.5 0,7.7 1.8,1.8 4.6,2.1 6.7,0.7 l 9.6,9.6 c 0.4,-0.2 0.7,-0.5 1.1,-0.7 0.3,-0.2 0.7,-0.4 1,-0.6 l -10,-10 c 1.3,-2.1 1.1,-4.9 -0.7,-6.7 z"
   id="path26" />
					<path
   class="st3"
   d="m 730.1,1043.8 -12,-12 c -0.3,0.5 -0.5,1 -0.9,1.5 l -0.1,0.1 c -0.1,0.2 -0.2,0.3 -0.3,0.5 l 11.6,11.6 c -1.3,2.1 -1.1,4.9 0.7,6.7 2.1,2.1 5.5,2.1 7.7,0 2.1,-2.1 2.1,-5.5 0,-7.7 -1.8,-1.8 -4.6,-2 -6.7,-0.7 z"
   id="path28" />
					<path
   class="st3"
   d="m 602.7,1034 c -0.2,-0.3 -0.4,-0.6 -0.6,-1 l -10.8,10.8 c -2.1,-1.3 -4.9,-1.1 -6.7,0.7 -2.1,2.1 -2.1,5.5 0,7.7 2.1,2.1 5.5,2.1 7.7,0 1.8,-1.8 2.1,-4.6 0.7,-6.7 l 10.4,-10.4 c -0.3,-0.4 -0.5,-0.7 -0.7,-1.1 z"
   id="path30" />
					<path
   class="st3"
   d="m 712.9,923.9 c -2.1,-2.1 -5.5,-2.1 -7.7,0 -1.8,1.8 -2.1,4.6 -0.7,6.7 l -10.8,10.8 c 0.4,0.2 0.8,0.5 1.2,0.7 0.3,0.2 0.6,0.4 0.9,0.5 l 10.4,-10.4 c 2.1,1.3 4.9,1.1 6.7,-0.7 2.1,-2.1 2.1,-5.5 0,-7.6 z"
   id="path32" />
				</g>
				<path
   class="st2"
   d="m 722.3,934.7 -10.6,10.6 1.7,1.7 10.6,-10.6 c 2.1,1.3 4.9,1.1 6.7,-0.7 2.1,-2.1 2.1,-5.5 0,-7.7 -2.1,-2.1 -5.5,-2.1 -7.7,0 -1.8,1.8 -2,4.6 -0.7,6.7 z"
   id="path36" />
			</g>
		</g>
	</g>
	<g
   id="g100">
		<g
   id="g98">
			<g
   id="g66">
				<path
   class="st3"
   d="m 814.7,1038.8 v -75 h 34.1 c 15.3,0 23,6.7 23,20.1 0,9.1 -6,16.6 -17.9,22.5 l 23.8,32.5 h -17.5 l -22.9,-32.7 v -6.4 c 13.3,-2.3 20,-7.4 20,-15.5 0,-5.5 -3.1,-8.3 -9.3,-8.3 h -19.1 v 62.8 z"
   id="path44" />
				<path
   class="st3"
   d="m 910.5,983.7 c 16.7,0 25.1,8.5 25.1,25.6 0,2.3 -0.2,4.6 -0.5,6.8 h -36.6 c 0,7.8 5.7,11.7 17.1,11.7 5.6,0 11.1,-0.5 16.7,-1.6 v 11 c -4.9,1 -10.8,1.6 -17.8,1.6 -20,0 -30,-9.4 -30,-28.2 0.1,-17.9 8.7,-26.9 26,-26.9 z m -12,22.8 H 922 v -0.4 c 0,-7.6 -3.9,-11.5 -11.6,-11.5 -7.2,0.1 -11.2,4 -11.9,11.9 z"
   id="path46" />
				<path
   class="st3"
   d="m 950.4,986 c 7.3,-1.5 15.1,-2.3 23.2,-2.3 18.7,0 28.1,8.7 28.1,26.2 0,19.3 -8.7,28.9 -26.2,28.9 -3.7,0 -7.5,-0.9 -11.2,-2.6 v 22.6 h -13.9 z m 13.9,38.5 c 3.5,1.9 7.2,2.8 11.2,2.8 8.3,0 12.4,-5.8 12.4,-17.5 0,-9.9 -4.6,-14.9 -13.8,-14.9 -4,0 -7.2,0.2 -9.9,0.7 v 28.9 z"
   id="path48" />
				<path
   class="st3"
   d="m 1016.5,1038.9 v -55.2 h 10.8 l 1.7,7 c 4.8,-4.7 10,-7 15.3,-7 V 995 c -5.2,0 -9.8,2.2 -13.9,6.5 v 37.5 h -13.9 z"
   id="path50" />
				<path
   class="st3"
   d="m 1053.9,1011.3 c 0,-18.5 9.1,-27.7 27.3,-27.7 18.2,0 27.3,9.2 27.3,27.7 0,18.5 -9.1,27.7 -27.3,27.7 -18.1,0 -27.2,-9.2 -27.3,-27.7 z m 27.3,17.1 c 8.9,0 13.4,-5.8 13.4,-17.3 0,-11.2 -4.5,-16.9 -13.4,-16.9 -8.9,0 -13.4,5.6 -13.4,16.9 0,11.5 4.5,17.3 13.4,17.3 z"
   id="path52" />
				<path
   class="st3"
   d="m 1172.2,1035.6 c -8.4,2.2 -16.7,3.3 -24.7,3.3 -17.8,0 -26.7,-9.6 -26.7,-28.7 0,-17.7 8.7,-26.5 26.2,-26.5 3.7,0 7.5,0.9 11.4,2.6 v -22.6 h 13.9 v 71.9 z m -13.9,-37.5 c -2.9,-1.9 -6.5,-2.8 -10.8,-2.8 -8.7,0 -13,4.8 -13,14.5 0,11.5 4.5,17.3 13.5,17.3 3.6,0 7.1,-0.5 10.3,-1.5 z"
   id="path54" />
				<path
   class="st3"
   d="m 1239.3,983.7 v 55.2 h -10.9 l -1.7,-7 c -6.3,4.7 -13.1,7 -20.2,7 -11.3,0 -16.9,-6.7 -16.9,-20 v -35.1 h 13.9 v 34.8 c 0,6.1 2.7,9.1 8,9.1 4.5,0 9.1,-1.8 13.8,-5.4 v -38.5 h 14 z"
   id="path56" />
				<path
   class="st3"
   d="m 1297.4,1037.3 c -4.5,1 -9.3,1.6 -14.2,1.6 -19.6,0 -29.4,-9.5 -29.4,-28.6 0,-17.7 9.8,-26.5 29.4,-26.5 4.9,0 9.6,0.5 14.2,1.6 v 11 c -4.5,-1 -8.9,-1.6 -13.1,-1.6 -11,0 -16.5,5.2 -16.5,15.5 0,11.7 5.5,17.6 16.5,17.6 4.2,0 8.6,-0.5 13.1,-1.6 z"
   id="path58" />
				<path
   class="st3"
   d="m 1334.2,983.7 c 16.7,0 25.1,8.5 25.1,25.6 0,2.3 -0.2,4.6 -0.5,6.8 h -36.6 c 0,7.8 5.7,11.7 17.1,11.7 5.6,0 11.1,-0.5 16.7,-1.6 v 11 c -4.9,1 -10.8,1.6 -17.8,1.6 -20,0 -30,-9.4 -30,-28.2 0.1,-17.9 8.7,-26.9 26,-26.9 z m -12,22.8 h 23.5 v -0.4 c 0,-7.6 -3.9,-11.5 -11.6,-11.5 -7.3,0.1 -11.3,4 -11.9,11.9 z"
   id="path60" />
				<path
   class="st3"
   d="m 1383.1,1038.9 h -14.3 l 31.9,-75.1 h 15 l 32.6,75.1 h -15 l -8.6,-20.5 h -25 l 4.8,-12.1 h 15.1 l -11.8,-28.2 z"
   id="path62" />
				<path
   class="st3"
   d="m 1475.6,963.8 v 75.1 h -13.9 v -75.1 z"
   id="path64" />
			</g>
			<g
   id="g96">
				<g
   id="g94">
					<path
   class="st3"
   d="m 1009.8,1066.5 c 0,-7.1 5.4,-12.3 12.8,-12.3 3.7,0 7,1.3 9.2,3.8 l -2.2,2.2 c -1.9,-2 -4.1,-2.9 -6.8,-2.9 -5.4,0 -9.5,3.9 -9.5,9.3 0,5.3 4,9.3 9.5,9.3 2.7,0 4.9,-0.9 6.8,-2.9 l 2.2,2.2 c -2.2,2.5 -5.4,3.8 -9.2,3.8 -7.3,-0.1 -12.8,-5.3 -12.8,-12.5 z"
   id="path68" />
					<path
   class="st3"
   d="m 1043.2,1066.5 c 0,-7.1 5.4,-12.3 12.9,-12.3 7.3,0 12.8,5.2 12.8,12.3 0,7.1 -5.4,12.3 -12.8,12.3 -7.4,0.1 -12.9,-5.2 -12.9,-12.3 z m 22.2,0 c 0,-5.3 -4,-9.3 -9.3,-9.3 -5.4,0 -9.4,3.9 -9.4,9.3 0,5.3 4,9.3 9.4,9.3 5.3,0 9.3,-3.9 9.3,-9.3 z"
   id="path70" />
					<path
   class="st3"
   d="m 1081.1,1066.5 c 0,-7.1 5.4,-12.3 12.9,-12.3 7.3,0 12.8,5.2 12.8,12.3 0,7.1 -5.4,12.3 -12.8,12.3 -7.4,0.1 -12.9,-5.2 -12.9,-12.3 z m 22.2,0 c 0,-5.3 -4,-9.3 -9.3,-9.3 -5.4,0 -9.4,3.9 -9.4,9.3 0,5.3 4,9.3 9.4,9.3 5.3,0 9.3,-3.9 9.3,-9.3 z"
   id="path72" />
					<path
   class="st3"
   d="m 1121,1054.5 h 3.4 v 21.1 h 13.1 v 3 H 1121 Z"
   id="path74" />
					<path
   class="st3"
   d="m 1150.5,1054.5 h 3.4 v 24.1 h -3.4 z"
   id="path76" />
					<path
   class="st3"
   d="m 1190.9,1054.5 v 24.1 h -2.8 l -14.5,-18 v 18 h -3.4 v -24.1 h 2.8 l 14.5,18 v -18 z"
   id="path78" />
					<path
   class="st3"
   d="m 1223.8,1066.4 h 3.3 v 9.4 c -2.4,2 -5.8,3.1 -9.1,3.1 -7.4,0 -12.9,-5.2 -12.9,-12.3 0,-7.1 5.4,-12.3 12.9,-12.3 3.8,0 7.1,1.3 9.3,3.7 l -2.1,2.1 c -2,-1.9 -4.3,-2.8 -7,-2.8 -5.6,0 -9.6,3.9 -9.6,9.3 0,5.3 4,9.3 9.6,9.3 2,0 3.9,-0.4 5.7,-1.6 v -7.9 z"
   id="path80" />
					<path
   class="st3"
   d="m 1260.9,1054.5 h 10.2 c 7.8,0 13,4.9 13,12.1 0,7.2 -5.3,12.1 -13,12.1 h -10.2 z m 10,21.1 c 6,0 9.8,-3.7 9.8,-9.1 0,-5.4 -3.8,-9.1 -9.8,-9.1 h -6.5 v 18.1 h 6.5 z"
   id="path82" />
					<path
   class="st3"
   d="m 1296.4,1066.5 c 0,-7.1 5.4,-12.3 12.9,-12.3 7.3,0 12.8,5.2 12.8,12.3 0,7.1 -5.4,12.3 -12.8,12.3 -7.5,0.1 -12.9,-5.2 -12.9,-12.3 z m 22.2,0 c 0,-5.3 -4,-9.3 -9.3,-9.3 -5.4,0 -9.4,3.9 -9.4,9.3 0,5.3 4,9.3 9.4,9.3 5.3,0 9.3,-3.9 9.3,-9.3 z"
   id="path84" />
					<path
   class="st3"
   d="m 1369.6,1054.5 -8.1,24.1 h -3.6 l -6.6,-19.3 -6.6,19.3 h -3.7 l -8.1,-24.1 h 3.6 l 6.5,19.6 6.8,-19.6 h 3.2 l 6.7,19.7 6.7,-19.7 z"
   id="path86" />
					<path
   class="st3"
   d="m 1403.6,1054.5 v 24.1 h -2.8 l -14.5,-18 v 18 h -3.4 v -24.1 h 2.8 l 14.5,18 v -18 z"
   id="path88" />
					<path
   class="st3"
   d="m 1453.4,1072.6 h -12.8 l -2.7,6 h -3.6 l 10.9,-24.1 h 3.4 l 11,24.1 h -3.6 z m -1.2,-2.8 -5.2,-11.8 -5.2,11.8 z"
   id="path90" />
					<path
   class="st3"
   d="m 1472.2,1054.5 h 3.4 v 24.1 h -3.4 z"
   id="path92" />
				</g>
			</g>
		</g>
	</g>
</g>
</svg>
