<svg id="Capa_1" enable-background="new 0 0 511.904 511.904" height="512" viewBox="0 0 511.904 511.904" width="512" xmlns="http://www.w3.org/2000/svg"><g><g><g><path d="m490.163 213.953h-468.422c-7.865 0-14.241-6.376-14.241-14.241v-156.567c0-7.865 6.376-14.241 14.241-14.241h468.422c7.865 0 14.241 6.376 14.241 14.241v156.566c0 7.866-6.376 14.242-14.241 14.242z" fill="#8ac9fe"/></g><g><path d="m504.402 43.149v156.56c0 7.87-6.37 14.24-14.24 14.24h-20c7.87 0 14.24-6.37 14.24-14.24v-156.56c0-7.87-6.37-14.24-14.24-14.24h20c7.87 0 14.24 6.37 14.24 14.24z" fill="#60b7ff"/></g></g><g><g><path d="m458.443 286.746c-11.044 0-19.998 8.953-19.998 19.998v-22.958c0-11.044-8.953-19.998-19.998-19.998-11.045 0-19.998 8.954-19.998 19.998v-14.085c0-11.044-8.953-19.998-19.998-19.998-11.045 0-19.998 8.953-19.998 19.998v-76.12c0-11.083-8.984-20.067-20.067-20.067-11.083 0-20.067 8.984-20.067 20.067v135.78c0 3.476-4.393 4.99-6.535 2.253l-18.266-23.345c-7.559-9.661-21.487-11.433-31.224-3.972-9.789 7.5-11.661 21.509-4.185 31.316l51.932 71.987c4.957 6.871 7.624 15.129 7.624 23.601v51.799h135.123v-51.33c0-11.73 4.606-22.992 12.826-31.36 8.22-8.368 12.826-19.629 12.826-31.36v-51.083-11.124c.001-11.044-8.952-19.997-19.997-19.997z" fill="#ffcebf"/></g><g><path d="m358.452 193.578v143.36h-.08c-11.04 0-19.99-8.95-19.99-19.99v-123.37c0-7.42-4.03-13.9-10.03-17.37 2.95-1.71 6.37-2.69 10.03-2.69 11.09 0 20.07 8.979 20.07 20.06z" fill="#ffb09e"/></g><g><path d="m398.452 270.195v66.742h-.01c-11.04 0-19.99-8.95-19.99-19.99v-47.25c0-7.4-4.02-13.86-10-17.31 3.213-1.858 7-2.856 11.021-2.654 10.721.538 18.979 9.727 18.979 20.462z" fill="#ffb09e"/></g><g><path d="m438.442 283.788v53.15c-11.04 0-19.99-8.95-19.99-19.99v-33.16c0-7.4-4.02-13.86-10-17.31 2.94-1.71 6.36-2.69 10-2.69 11.04 0 19.99 8.949 19.99 20z" fill="#ffb09e"/></g><g><path d="m458.442 286.747c-3.64 0-7.06.98-10 2.69 5.98 3.44 10 9.9 10 17.31v57.478c0 5.87-1.15 11.61-3.33 16.94s-5.39 10.23-9.5 14.42c-8.22 8.37-12.82 19.63-12.82 31.36v56.059h20v-51.337c0-11.73 4.6-22.99 12.82-31.36 4.11-4.19 7.32-9.09 9.5-14.42s3.33-11.07 3.33-16.94v-62.2c0-11.05-8.95-20-20-20z" fill="#ffb09e"/></g><g><path d="m314.027 150.641 3.125-8.204h21.675l3.088 8.183c1.133 3.004 3.987 4.854 7.018 4.854.88 0 1.775-.156 2.647-.485 3.875-1.463 5.831-5.79 4.368-9.665l-19.753-52.341c-.025-.068-.053-.137-.08-.204-1.348-3.277-4.506-5.394-8.049-5.394-.002 0-.004 0-.005 0-3.546.002-6.705 2.124-8.049 5.404-.024.058-.047.116-.069.174l-19.934 52.338c-1.475 3.871.469 8.204 4.34 9.678 3.865 1.476 8.204-.467 9.678-4.338zm14.012-36.789 5.127 13.585h-10.301z"/><path d="m201.954 147.972v-28.928l22.159 32.087c2.171 3.134 5.806 4.461 9.255 3.383 3.515-1.099 5.786-4.369 5.786-8.331v-51.298c0-4.142-3.357-7.5-7.5-7.5s-7.5 3.358-7.5 7.5v29.909l-23.528-34.071c-1.865-2.701-5.267-3.875-8.404-2.898-3.133.977-5.268 3.878-5.268 7.16v52.987c0 4.142 3.357 7.5 7.5 7.5s7.5-3.358 7.5-7.5z"/><path d="m68.163 102.385c3.816 0 7.496 1.123 10.642 3.248 3.433 2.319 8.095 1.416 10.413-2.017 2.318-3.432 1.416-8.094-2.017-10.413-5.635-3.806-12.218-5.818-19.038-5.818-18.771 0-34.044 15.272-34.044 34.043s15.272 34.043 34.044 34.043c7.526 0 14.289-2.479 19.558-7.171 1.031-.919 2.01-1.928 2.909-3 2.663-3.173 2.249-7.904-.925-10.566s-7.903-2.248-10.565.925c-.437.52-.907 1.006-1.397 1.442-2.512 2.237-5.734 3.371-9.579 3.371-10.501 0-19.044-8.542-19.044-19.043s8.542-19.044 19.043-19.044z"/><path d="m397.149 102.385c3.816 0 7.496 1.123 10.642 3.248 3.432 2.319 8.094 1.416 10.413-2.017 2.318-3.432 1.416-8.094-2.017-10.413-5.635-3.806-12.218-5.818-19.038-5.818-18.771 0-34.044 15.272-34.044 34.043s15.272 34.043 34.044 34.043c7.526 0 14.289-2.479 19.558-7.171 1.031-.919 2.01-1.928 2.909-3 2.663-3.173 2.249-7.904-.925-10.566s-7.903-2.248-10.565.925c-.437.52-.907 1.006-1.397 1.442-2.512 2.237-5.734 3.371-9.579 3.371-10.501 0-19.044-8.542-19.044-19.043s8.542-19.044 19.043-19.044z"/><path d="m274.495 155.472c4.143 0 7.5-3.358 7.5-7.5v-45.586h7.218c4.143 0 7.5-3.358 7.5-7.5s-3.357-7.5-7.5-7.5h-29.316c-4.143 0-7.5 3.358-7.5 7.5s3.357 7.5 7.5 7.5h7.099v45.586c-.001 4.142 3.357 7.5 7.499 7.5z"/><path d="m455.567 155.472c4.143 0 7.5-3.358 7.5-7.5v-45.586h7.218c4.143 0 7.5-3.358 7.5-7.5s-3.357-7.5-7.5-7.5h-29.317c-4.143 0-7.5 3.358-7.5 7.5s3.357 7.5 7.5 7.5h7.1v45.586c-.001 4.142 3.357 7.5 7.499 7.5z"/><path d="m139.67 155.472c18.771 0 34.043-15.271 34.043-34.043s-15.271-34.043-34.043-34.043-34.044 15.272-34.044 34.043 15.272 34.043 34.044 34.043zm0-53.087c10.5 0 19.043 8.543 19.043 19.043s-8.543 19.043-19.043 19.043c-10.501 0-19.044-8.542-19.044-19.043s8.543-19.043 19.044-19.043z"/><path d="m490.163 21.404h-361.291c-4.143 0-7.5 3.358-7.5 7.5s3.357 7.5 7.5 7.5h361.291c3.717 0 6.741 3.024 6.741 6.741v156.566c0 3.717-3.024 6.741-6.741 6.741h-124.21v-12.872c0-15.201-12.366-27.567-27.566-27.567-15.201 0-27.567 12.366-27.567 27.567v12.872h-289.079c-3.717 0-6.741-3.024-6.741-6.741v-156.565c0-3.717 3.024-6.741 6.741-6.741h72.762c4.143 0 7.5-3.358 7.5-7.5s-3.357-7.5-7.5-7.5h-72.762c-11.988-.001-21.741 9.752-21.741 21.741v156.566c0 11.988 9.753 21.741 21.741 21.741h289.078v96.756l-11.394-14.563c-10.047-12.841-28.75-15.22-41.692-5.304-13.013 9.971-15.536 28.671-5.652 41.733l51.878 71.912c4.061 5.629 6.207 12.272 6.207 19.213v51.8c0 4.142 3.357 7.5 7.5 7.5h135.122c4.143 0 7.5-3.358 7.5-7.5v-51.33c0-9.825 3.792-19.096 10.677-26.104 9.657-9.831 14.977-22.835 14.977-36.616v-3.802c0-4.142-3.357-7.5-7.5-7.5s-7.5 3.358-7.5 7.5v3.802c0 9.824-3.792 19.095-10.678 26.104-9.657 9.831-14.976 22.834-14.976 36.616v43.83h-120.122v-44.298c0-10.111-3.127-19.789-9.043-27.989l-51.932-71.987c-.038-.054-.077-.106-.117-.159-4.957-6.504-3.709-15.843 2.782-20.817 6.445-4.937 15.755-3.751 20.755 2.64l18.266 23.345c2.933 3.748 7.927 5.221 12.422 3.672 4.498-1.551 7.521-5.789 7.521-10.547v-135.78c0-6.929 5.638-12.567 12.567-12.567s12.566 5.638 12.566 12.567v136.121c0 4.142 3.357 7.5 7.5 7.5s7.5-3.358 7.5-7.5v-60.001c0-6.891 5.606-12.498 12.498-12.498s12.498 5.606 12.498 12.498v60.001c0 4.142 3.357 7.5 7.5 7.5s7.5-3.358 7.5-7.5v-45.917c0-6.891 5.606-12.498 12.498-12.498s12.498 5.606 12.498 12.498v45.917c0 4.142 3.357 7.5 7.5 7.5s7.5-3.358 7.5-7.5v-22.958c0-6.892 5.606-12.498 12.498-12.498s12.498 5.606 12.498 12.498v24.207c0 4.142 3.357 7.5 7.5 7.5s7.5-3.358 7.5-7.5v-24.207c0-15.163-12.336-27.498-27.498-27.498-4.516 0-8.777 1.101-12.541 3.039-.782-14.467-12.797-25.997-27.456-25.997-5.183 0-10.035 1.443-14.178 3.946-3.867-10.512-13.981-18.031-25.818-18.031-4.499 0-8.745 1.093-12.498 3.017v-23.767h124.21c11.988 0 21.741-9.753 21.741-21.741v-156.565c.001-11.989-9.752-21.742-21.74-21.742z"/></g></g></g></svg>