<svg id="Layer_1" data-name="Layer 1" xmlns="http://www.w3.org/2000/svg" viewBox="0 0 32 32"><defs><style>.cls-1{fill:#f7c68c;}.cls-2{fill:#0f274d;}.cls-3{fill:#cb6018;}</style></defs><title>Favicon</title><path class="cls-1" d="M24.11,23.63a.67.67,0,1,0,.21-.2l-.12.09Z"/><path class="cls-2" d="M17.39,24.32v-1a7.59,7.59,0,0,0,3.38-1.39h0l0,0,.72.72,1.52-1.52-.72-.72a5.82,5.82,0,0,0,.44-.66h0a2.15,2.15,0,0,0,.14-.26A7.47,7.47,0,0,0,23.75,17h1V14.81h-1a7.32,7.32,0,0,0-1.22-3.14c-.06-.1-.13-.19-.2-.29l.72-.72L21.53,9.15l-.72.72a4.81,4.81,0,0,0-.55-.37L20,9.34a7.34,7.34,0,0,0-2.62-.89v-1H15.25v1a7.34,7.34,0,0,0-2.46.81l-.26.14a6.58,6.58,0,0,0-.7.47l-.72-.72L9.59,10.67l.72.71-.2.28a7.59,7.59,0,0,0-1.22,3.15h-1V17h1a7.54,7.54,0,0,0,.89,2.62c.05.08.1.17.16.25a4.81,4.81,0,0,0,.37.55l-.72.72,1.52,1.52.72-.72a1.73,1.73,0,0,0,.28.19,7.38,7.38,0,0,0,3.14,1.23v1ZM12.1,20.1a6,6,0,1,1,8.44,0A6,6,0,0,1,12.1,20.1Z"/><path class="cls-3" d="M9.48,11.36H9.11L7.35,9.59a.64.64,0,1,0-.2.21L9,11.64h.47a2,2,0,0,1,.11-.2Z"/><path class="cls-1" d="M8,8.24a.65.65,0,0,0,.81.09L10,9.49l.2-.2L9,8.13a.67.67,0,0,0-.09-.82A.65.65,0,0,0,8,8.24Z"/><path class="cls-3" d="M23.66,25.18a.65.65,0,0,0-.81-.09l-1.76-1.76V23l-.29-.29,0,.78,1.84,1.84a.65.65,0,0,0,1,.81A.66.66,0,0,0,23.66,25.18Z"/><path class="cls-1" d="M22.92,22l-.21.2,1.4,1.4.09-.11.12-.09Z"/><path class="cls-3" d="M10.24,25.29l1.84-1.84v-.7l-.2-.12-.08.08,0,.62L10,25.09a.67.67,0,0,0-.82.09.65.65,0,0,0,.93.92A.65.65,0,0,0,10.24,25.29Z"/><path class="cls-1" d="M8.77,23.63l1.28-1.28-.21-.2L8.57,23.43a.65.65,0,0,0-.81.09.65.65,0,1,0,.92.92A.65.65,0,0,0,8.77,23.63Z"/><path class="cls-3" d="M25.53,9.59l-1.76,1.76-.62,0-.08.08.12.2h.7L25.74,9.8a.65.65,0,0,0,.81-.09.66.66,0,0,0-.93-.93A.65.65,0,0,0,25.53,9.59Z"/><path class="cls-2" d="M30.91,14.21a14.75,14.75,0,0,0-13-12.83,2,2,0,0,0-3.86.09A14.72,14.72,0,0,0,1.74,14a2,2,0,0,0,0,4A14.76,14.76,0,0,0,14.06,30.54a2,2,0,0,0,3.86.08,14.74,14.74,0,0,0,13-12.83,2,2,0,0,0,0-3.58ZM15.51,1.32A.84.84,0,0,1,16,1.16a.83.83,0,0,1,.46.14.84.84,0,0,1,.4.72.82.82,0,0,1-.41.72.77.77,0,0,1-.45.14.76.76,0,0,1-.42-.12A.84.84,0,0,1,15.14,2,.85.85,0,0,1,15.51,1.32ZM2,16.86a.91.91,0,0,1-.4-.1.86.86,0,0,1,0-1.52.91.91,0,0,1,.4-.1.86.86,0,1,1,0,1.72Zm14,14a.85.85,0,0,1-.42-1.6.76.76,0,0,1,.42-.12.83.83,0,0,1,.46.14.85.85,0,0,1,.4.72.84.84,0,0,1-.4.72A.83.83,0,0,1,16,30.84Zm1.85-1.67a2,2,0,0,0-3.66-.08,13.29,13.29,0,0,1-11-11.43,2,2,0,0,0,0-3.32,13.29,13.29,0,0,1,11-11.43,2,2,0,0,0,3.66-.08A13.27,13.27,0,0,1,29.42,14.06a2,2,0,0,0,0,3.88A13.28,13.28,0,0,1,17.85,29.17ZM30,16.86a.86.86,0,1,1,.86-.86A.86.86,0,0,1,30,16.86Z"/><path class="cls-2" d="M11.07,6.82a.65.65,0,1,0-.92.92.65.65,0,0,0,.81.09L12.12,9a.57.57,0,0,1,.13-.08l.12-.07L11.16,7.63A.65.65,0,0,0,11.07,6.82Z"/><path class="cls-2" d="M24.81,21.28l-1.45-1.45a1.62,1.62,0,0,1-.1.18h0l0,.06,1.4,1.4a.65.65,0,0,0,.09.81.65.65,0,0,0,.92-.92A.65.65,0,0,0,24.81,21.28Z"/><path class="cls-2" d="M9.44,20.1,9.37,20l-1.3,1.3a.65.65,0,0,0-.81.09.65.65,0,0,0,.92.92.65.65,0,0,0,.09-.81l1.25-1.25Z"/><path class="cls-2" d="M22.73,6.82a.64.64,0,0,0-.92,0,.65.65,0,0,0-.09.81l-1.3,1.3.15.09.1.06,1.25-1.25a.65.65,0,0,0,.81-.09A.64.64,0,0,0,22.73,6.82Z"/><path class="cls-1" d="M23.87,8.13,22.59,9.4l.21.21,1.27-1.28a.66.66,0,0,0,.81-1,.66.66,0,0,0-.92,0A.67.67,0,0,0,23.87,8.13Z"/></svg>