<svg id="Layer_1" data-name="Layer 1" xmlns="http://www.w3.org/2000/svg" viewBox="0 0 192 192"><defs><style>.cls-1{fill:#f7c68c;}.cls-2{fill:#0f274d;}.cls-3{fill:#cb6018;}</style></defs><title>Favicon</title><path class="cls-1" d="M144.68,141.79a3.94,3.94,0,1,0,1.21-1.2,3.78,3.78,0,0,0-.68.53A4.72,4.72,0,0,0,144.68,141.79Z"/><path class="cls-2" d="M104.34,145.93v-6.09a44.81,44.81,0,0,0,20.26-8.3l0,0,.27-.17,4.3,4.3,9.11-9.1L134,122.24a39.41,39.41,0,0,0,2.65-4v0a14.57,14.57,0,0,0,.89-1.6,44.18,44.18,0,0,0,5-14.93h6.09V88.84H142.5A44,44,0,0,0,135.15,70,17.55,17.55,0,0,0,134,68.31L138.3,64l-9.09-9.09-4.32,4.32A30.41,30.41,0,0,0,121.55,57a14,14,0,0,0-1.5-.92,44.1,44.1,0,0,0-15.71-5.37V44.6l-12.84,0v6.09a43.63,43.63,0,0,0-14.75,4.85c-.54.26-1.06.55-1.56.85A46.21,46.21,0,0,0,71,59.2l-4.28-4.29L57.56,64l4.29,4.29A17.18,17.18,0,0,0,60.69,70a44.84,44.84,0,0,0-7.34,18.87H47.26V101.7h6.09a44.68,44.68,0,0,0,5.36,15.71c.3.51.6,1,.92,1.5a33.42,33.42,0,0,0,2.24,3.33l-4.32,4.32,9.09,9.09L71,131.33c.55.42,1.11.82,1.69,1.18a44.54,44.54,0,0,0,18.86,7.35l0,6.07ZM72.58,120.58a35.81,35.81,0,1,1,50.67,0A35.8,35.8,0,0,1,72.58,120.58Z"/><path class="cls-3" d="M56.88,68.17l-2.23,0L44.09,57.56a3.92,3.92,0,1,0-1.21,1.21l11,11,2.8.07c.24-.39.44-.79.69-1.17Z"/><path class="cls-1" d="M48,49.43a3.93,3.93,0,0,0,4.87.54l7,7L61,55.72l-7-7a3.92,3.92,0,1,0-6.08.67Z"/><path class="cls-3" d="M142,151.09a3.93,3.93,0,0,0-4.87-.54L126.53,140l-.06-2.23L124.72,136l.11,4.7,11,11a3.92,3.92,0,1,0,6.08-.67Z"/><path class="cls-1" d="M137.49,132.19l-1.21,1.2,8.4,8.4a4.72,4.72,0,0,1,.53-.67,3.78,3.78,0,0,1,.68-.53Z"/><path class="cls-3" d="M61.42,151.76l11-11,.1-4.24c-.4-.25-.81-.46-1.2-.72l-.51.5L70.77,140,60.21,150.55a3.92,3.92,0,1,0,1.21,1.21Z"/><path class="cls-1" d="M52.61,141.79l7.67-7.66-1.21-1.21-7.67,7.67a3.91,3.91,0,1,0,1.21,1.2Z"/><path class="cls-3" d="M153.2,57.56,142.64,68.12l-3.73.09-.5.5c.26.39.47.81.72,1.2l4.24-.1,11-11a3.92,3.92,0,1,0-1.21-1.21Z"/><path class="cls-2" d="M185.44,85.25a88.42,88.42,0,0,0-77.95-77,12.12,12.12,0,0,0-23.14.52A88.4,88.4,0,0,0,10.45,84a12.08,12.08,0,0,0,0,23.94,88.46,88.46,0,0,0,73.9,75.25,12.12,12.12,0,0,0,23.14.5,88.4,88.4,0,0,0,78-77,12.09,12.09,0,0,0,0-21.5ZM93.06,7.9A5.11,5.11,0,0,1,96,7a5.17,5.17,0,0,1,2.75.8,5.12,5.12,0,0,1,0,8.69,5,5,0,0,1-5.24.12,5.11,5.11,0,0,1-.42-8.68ZM12.12,101.14a4.87,4.87,0,0,1-2.37-.59,5.13,5.13,0,1,1,2.37.59ZM96,185a5.14,5.14,0,0,1-2.54-9.61,5,5,0,0,1,2.54-.68,5.14,5.14,0,0,1,2.75,9.49A5.17,5.17,0,0,1,96,185Zm11.07-10a12.1,12.1,0,0,0-21.92-.49A79.69,79.69,0,0,1,19,106a12.08,12.08,0,0,0,0-20A79.71,79.71,0,0,1,85.15,17.49,12.1,12.1,0,0,0,107.07,17a79.68,79.68,0,0,1,69.47,67.36,12.11,12.11,0,0,0,0,23.28A79.7,79.7,0,0,1,107.07,175Zm72.81-73.86a5,5,0,0,1-2.61-.73,5.12,5.12,0,0,1,0-8.84,5.15,5.15,0,1,1,2.61,9.57Z"/><path class="cls-2" d="M66.43,40.91A3.92,3.92,0,1,0,65.75,47l7,6.94c.26-.16.52-.33.78-.48l.73-.42L67,45.78A3.92,3.92,0,0,0,66.43,40.91Z"/><path class="cls-2" d="M148.87,127.68l-8.7-8.69c-.19.34-.4.7-.62,1.06l-.06.09-.22.36,8.39,8.39a3.92,3.92,0,1,0,1.21-1.21Z"/><path class="cls-2" d="M56.67,120.63c-.14-.2-.29-.45-.46-.73l-7.78,7.78a3.92,3.92,0,1,0,1.21,1.21l7.5-7.5Z"/><path class="cls-2" d="M136.41,40.91a3.92,3.92,0,0,0-6.08,4.87l-7.79,7.79c.29.18.6.34.87.53l.63.39,7.5-7.5a3.92,3.92,0,0,0,4.87-6.08Z"/><path class="cls-1" d="M143.23,48.76l-7.66,7.66,1.21,1.21L144.44,50a3.92,3.92,0,1,0-1.21-1.21Z"/></svg>